<svg width="160" height="32" fill="none" xmlns="http://www.w3.org/2000/svg">
    <path d="M17.7 15l7.2-12.7v-.9A1 1 0 0024 1H9.3a1 1 0 00-.7.4L1 14.6c-.2.3-.2.6 0 .8l7.6 13.2c.2.3.5.4.7.4h14.8c.3 0 .6-.2.8-.4v-.9L17.7 15zm-1-1.7L10.8 2.7h12l-6 10.6zM9.3 3.6L15.7 15 9.3 26.5 2.7 15 9.3 3.6zm1.5 23.7l6-10.6 5.9 10.6H10.8zM42.8 24h5.6c6 0 9-3.4 9-8.6v-.2c0-5.1-3-8.4-9-8.4h-5.6V24zm4-3V9.9h1.5c3.6 0 5.1 1.9 5.1 5.4v.2c0 3.5-1.6 5.5-5 5.5h-1.7zm19 3.3c3.4 0 5.5-1.5 6-4.3h-3.4c-.2 1.1-1 1.8-2.6 1.8-1.9 0-3-1.2-3.1-3.3h9v-1c0-4.4-2.8-6.3-6-6.3a6.2 6.2 0 00-6.5 6.5v.2c0 4 2.7 6.4 6.5 6.4zm-3-8c.2-1.7 1.3-2.7 2.8-2.7 1.7 0 2.6.9 2.8 2.8h-5.7zM77 24H81l4.5-12.6h-3.3l-3 9-3-9h-3.7L77 24zm15.5.3c3.4 0 5.6-1.5 6-4.3h-3.3c-.2 1.1-1 1.8-2.6 1.8-2 0-3-1.2-3.1-3.3h9v-1c0-4.4-2.9-6.3-6.1-6.3a6.2 6.2 0 00-6.5 6.5v.2c0 4 2.8 6.4 6.6 6.4zm-3-8c.3-1.7 1.3-2.7 2.9-2.7 1.6 0 2.6.9 2.7 2.8h-5.6zM101 24h3.4V5.8H101V24zm12.4.3c3.8 0 6.7-2.6 6.7-6.5v-.2c0-4-2.9-6.4-6.6-6.4-3.8 0-6.7 2.5-6.7 6.5v.2c0 3.9 2.9 6.4 6.6 6.4zm0-2.7c-1.9 0-3-1.4-3-3.8v-.2c0-2.4 1.1-3.8 3-3.8 2 0 3.1 1.4 3.1 3.8v.2c0 2.4-1 3.8-3 3.8zm15.5 0c-2 0-3.1-1.3-3.1-3.8v-.2c0-2.5 1.2-3.8 3-3.8s3 1.3 3 3.8v.2c0 2.5-1 3.8-3 3.8zm-6.5 6.7h3.5V22c.6 1.2 2 2.2 4 2.2 3.1 0 5.5-2.4 5.5-6.5v-.2c0-4.2-2.4-6.4-5.5-6.4-1.9 0-3.3 1-4 2.2v-2h-3.5v16.9zm21-4c3.5 0 5.7-1.5 6-4.3h-3.2c-.2 1.1-1 1.8-2.6 1.8-2 0-3-1.2-3.2-3.3h9v-1c0-4.4-2.8-6.3-6-6.3a6.2 6.2 0 00-6.5 6.5v.2c0 4 2.8 6.4 6.6 6.4zm-3-8c.4-1.7 1.4-2.7 3-2.7s2.6.9 2.7 2.8h-5.6zm11.4 7.7h3.4v-6.3c0-2.4 1.5-3.2 4.1-3.2v-3.2c-2 0-3.3.9-4 2.5v-2.4h-3.5V24z" fill="#0C1142"/>
</svg>