<svg width="16" height="16" fill="none" xmlns="http://www.w3.org/2000/svg">
    <path d="M11.5 16a.5.5 0 000-1v1zM11 4.5a.5.5 0 001 0h-1zm-10 9v-11H0v11h1zM2.5 1h7V0h-7v1zm9 14.5V15h-9v1H11.5v-.5zm-.5-13v2h1v-2h-1zM3 4h6V3H3v1zm0 3h3V6H3v1zm0 3h2V9H3v1zm0 3h2v-1H3v1zM9.5 1c.8 0 1.5.7 1.5 1.5h1C12 1.1 10.9 0 9.5 0v1zM1 2.5C1 1.7 1.7 1 2.5 1V0A2.5 2.5 0 000 2.5h1zm-1 11C0 14.9 1.1 16 2.5 16v-1c-.8 0-1.5-.7-1.5-1.5H0z" fill="#0C1142"/>
    <path d="M13.5 10a3.5 3.5 0 11-7 0 3.5 3.5 0 017 0z" stroke="#0C1142"/>
    <path d="M15 15.5L12.5 13" stroke="#0C1142" stroke-linecap="round"/>
</svg>